<?xml version="1.0" encoding="UTF-8"?>
<svg version="1.1" xmlns="http://www.w3.org/2000/svg" width="280" height="247">
<path d="M0 0 C92.4 0 184.8 0 280 0 C280 81.51 280 163.02 280 247 C187.6 247 95.2 247 0 247 C0 165.49 0 83.98 0 0 Z " fill="#010101" transform="translate(0,0)"/>
<path d="M0 0 C0.33 0 0.66 0 1 0 C-0.10283158 21.79043084 -9.79718201 40.60178977 -21.3515625 58.71875 C-21.7235376 59.30503174 -22.0955127 59.89131348 -22.47875977 60.49536133 C-23.49500426 62.08211298 -24.53006673 63.65676799 -25.56640625 65.23046875 C-27.12704009 68.24542622 -27.58474799 69.67225236 -27 73 C-25.57954978 75.49905013 -25.57954978 75.49905013 -23.5625 77.9375 C-20.44380111 81.98773067 -17.5892911 86.09478542 -14.8515625 90.41796875 C-10.35291132 97.47956351 -5.75023639 104.46773735 -1.10571289 111.43408203 C0.19962215 113.39319352 1.50121456 115.3547587 2.80273438 117.31640625 C3.65305071 118.59414625 4.50394998 119.87149853 5.35546875 121.1484375 C5.96441483 122.06190948 5.96441483 122.06190948 6.58566284 122.99383545 C9.24432051 126.95265578 12.02342034 130.77212485 15.0324707 134.47119141 C16 136 16 136 16 139 C10.46819339 139.0497499 4.93651948 139.08588418 -0.59545898 139.10986328 C-2.47406282 139.11986873 -4.35265129 139.13347733 -6.23120117 139.15087891 C-8.94453748 139.1753688 -11.65766638 139.1865379 -14.37109375 139.1953125 C-15.19959335 139.20563507 -16.02809296 139.21595764 -16.88169861 139.22659302 C-24.49226416 139.22802983 -31.62443451 138.42747603 -38 134 C-39.175625 133.443125 -39.175625 133.443125 -40.375 132.875 C-44.44123196 129.9705486 -47.0708693 126.00499624 -50 122 C-50.81597656 121.14728516 -50.81597656 121.14728516 -51.6484375 120.27734375 C-53 118 -53 118 -54 109 C-66.87 109 -79.74 109 -93 109 C-93.66 111.97 -94.32 114.94 -95 118 C-98.46740219 126.8018671 -104.32439169 132.01939858 -112.75 136.17578125 C-119.44821632 138.62946813 -125.46427366 139.28281734 -132.53125 139.1953125 C-133.40777222 139.1924826 -134.28429443 139.18965271 -135.18737793 139.18673706 C-137.95839699 139.17563492 -140.72908035 139.15054954 -143.5 139.125 C-145.3906203 139.11495729 -147.28124571 139.10583371 -149.171875 139.09765625 C-153.78137729 139.07572835 -158.39063194 139.04126845 -163 139 C-161.65490796 135.31506387 -160.00232056 132.28309155 -157.79296875 129.046875 C-156.72248291 127.4680957 -156.72248291 127.4680957 -155.63037109 125.85742188 C-155.21962341 125.25567139 -154.80887573 124.6539209 -154.38568115 124.03393555 C-152.2173317 120.85118097 -150.06667081 117.65652126 -147.91311646 114.46374512 C-146.02075194 111.65861126 -144.1268523 108.85452027 -142.23242188 106.05078125 C-141.58845459 105.09768066 -140.9444873 104.14458008 -140.28100586 103.16259766 C-138.96366197 101.21345806 -137.64595084 99.26456663 -136.32788086 97.31591797 C-134.40092413 94.46666737 -132.47571966 91.61623941 -130.55078125 88.765625 C-129.96734451 87.90398743 -129.38390778 87.04234985 -128.78279114 86.15460205 C-127.6902123 84.53553599 -126.6028627 82.91292458 -125.52163696 81.28625488 C-124.51040449 79.76688118 -123.48548286 78.25652663 -122.4468689 76.7557373 C-121.9786673 76.05742798 -121.5104657 75.35911865 -121.02807617 74.63964844 C-120.61152267 74.03167419 -120.19496918 73.42369995 -119.76579285 72.79730225 C-118.76755309 70.45445122 -119.12230904 69.35182436 -120 67 C-120.96981055 65.4257369 -121.9947211 63.8845314 -123.0625 62.375 C-126 58.21411765 -126 58.21411765 -126 56 C-126.66 56 -127.32 56 -128 56 C-129.71767682 52.01811282 -131.41037341 48.03520597 -133 44 C-133.66 44 -134.32 44 -135 44 C-138.95068336 36.58570383 -142.50661098 29.54599781 -144.4453125 21.3125 C-144.97955293 18.8456144 -144.97955293 18.8456144 -146.1875 16 C-147.44065381 11.37297056 -147.15260201 6.76457381 -147 2 C-145 3 -145 3 -144.12109375 5.6015625 C-143.75113281 6.72304687 -143.38117188 7.84453125 -143 9 C-141.73621977 11.50534015 -140.44724498 13.93933249 -139.0625 16.375 C-138.670625 17.06762939 -138.27875 17.76025879 -137.875 18.47387695 C-133.36939017 26.29425263 -128.21739835 33.64401474 -123 41 C-121.70514824 42.82958901 -120.41208862 44.66030179 -119.125 46.49536133 C-118.01461944 48.07760797 -116.89627282 49.65425583 -115.77734375 51.23046875 C-114.14215991 53.77848049 -113.00434597 56.15348577 -112 59 C-108.33922052 55.66048985 -105.74161921 51.81412781 -103.0625 47.6875 C-102.0140348 46.09828892 -100.96446079 44.50980906 -99.9140625 42.921875 C-99.31368164 42.01244141 -98.71330078 41.10300781 -98.09472656 40.16601562 C-94.20527141 34.28740788 -90.29751417 28.42140092 -86.36691284 22.57022095 C-85.41408689 21.14857997 -84.4643137 19.72488817 -83.51760864 18.29916382 C-82.17407705 16.27641201 -80.8206496 14.26063173 -79.46484375 12.24609375 C-79.05902069 11.630224 -78.65319763 11.01435425 -78.2350769 10.37982178 C-75.34191296 6.11397099 -75.34191296 6.11397099 -72 5 C-71.65000946 5.53124985 -71.30001892 6.06249969 -70.93942261 6.60984802 C-67.27305984 12.17490671 -63.60635316 17.73973868 -59.93945312 23.30444336 C-58.57380626 25.3769772 -57.208245 27.44956745 -55.84277344 29.5222168 C-53.87197398 32.5136602 -51.90085949 35.50489581 -49.9296875 38.49609375 C-49.32631561 39.41208847 -48.72294373 40.32808319 -48.10128784 41.27183533 C-46.95447105 43.01184866 -45.80555063 44.75047789 -44.65423584 46.48751831 C-43.52558108 48.20173846 -42.40974642 49.92445144 -41.30523682 51.65432739 C-40.77283386 52.48004242 -40.24043091 53.30575745 -39.69189453 54.15649414 C-39.22075226 54.8970253 -38.74960999 55.63755646 -38.26419067 56.40052795 C-37.84700775 56.92835373 -37.42982483 57.4561795 -37 58 C-36.34 58 -35.68 58 -35 58 C-33.41523334 55.65332629 -31.94528488 53.30600785 -30.5 50.875 C-27.1494289 45.36401496 -23.68411581 40.01732803 -19.875 34.8125 C-11.96530037 23.93839726 -4.90963025 12.56157648 0 0 Z " fill="#F1F1F1" transform="translate(216,78)"/>
<path d="M0 0 C0.66 0 1.32 0 2 0 C3.71658196 2.34280367 5.30766488 4.68815537 6.875 7.12890625 C7.6009436 8.24083595 7.6009436 8.24083595 8.34155273 9.37522888 C9.90096043 11.76676997 11.45068691 14.16440976 13 16.5625 C14.01366554 18.12217223 15.02798142 19.681422 16.04296875 21.24023438 C17.55413488 23.5613825 19.06498228 25.88272744 20.57380676 28.20539856 C27.14641561 38.31860144 33.75704354 48.40253197 40.8125 58.1875 C46.45067793 66.09038925 51.74645258 74.19486897 56.99609375 82.359375 C60.13539382 87.23676808 63.39397806 92.02392311 66.70703125 96.78515625 C68 99 68 99 68 102 C64.64600151 102.0878954 61.2923036 102.14068879 57.9375 102.1875 C56.99455078 102.21263672 56.05160156 102.23777344 55.08007812 102.26367188 C48.34634565 102.33405932 43.25639236 101.86129191 38.00390625 97.24609375 C37.29041016 96.35083984 37.29041016 96.35083984 36.5625 95.4375 C35.82193359 94.53837891 35.82193359 94.53837891 35.06640625 93.62109375 C34 92 34 92 34 90 C33.34 90 32.68 90 32 90 C29.97842805 83.42989117 29.48429212 74.25480597 32.5625 68 C34.29057424 64.3935842 34.17528555 62.77770356 33 59 C32.03126968 57.64377755 31.03565785 56.30582947 30 55 C30 54.01 30 53.02 30 52 C27.36574259 54.31245892 26.22987689 56.42320175 25 59.6875 C24.5359375 60.89986328 24.5359375 60.89986328 24.0625 62.13671875 C23.711875 63.08160156 23.36125 64.02648437 23 65 C22.01 67.64 21.02 70.28 20 73 C7.13 73 -5.74 73 -19 73 C-19.99 70.36 -20.98 67.72 -22 65 C-22.30164063 64.22269531 -22.60328125 63.44539063 -22.9140625 62.64453125 C-24.28308026 59.11667778 -25.41257217 55.75953808 -26 52 C-28.94520383 54.65068345 -31.09362145 57.52766764 -33 61 C-32.85748436 64.34911752 -31.98742371 67.04020528 -30.98828125 70.234375 C-29.08853081 77.47294978 -27.950295 85.34014299 -31.73046875 92.08984375 C-36.70474398 97.92027651 -41.77823668 101.5205951 -49.515625 102.23095703 C-52.18414515 102.29362383 -54.83194459 102.26312076 -57.5 102.1875 C-58.4178125 102.17396484 -59.335625 102.16042969 -60.28125 102.14648438 C-62.52146803 102.11148097 -64.76040594 102.06238869 -67 102 C-66.36661464 98.72361275 -65.18560964 96.45665034 -63.35131836 93.68139648 C-62.79661362 92.83629013 -62.24190887 91.99118378 -61.6703949 91.12046814 C-61.06631302 90.21317459 -60.46223114 89.30588104 -59.83984375 88.37109375 C-58.9048983 86.95377708 -58.9048983 86.95377708 -57.95106506 85.50782776 C-56.62802407 83.50466101 -55.30221855 81.50331785 -53.97387695 79.50366211 C-51.96390895 76.47726382 -49.96266386 73.44525115 -47.96289062 70.41210938 C-42.51230712 62.16360662 -37.05868695 53.95496687 -31.16186523 46.0168457 C-25.39456236 37.96867386 -20.03210968 29.62690701 -14.5625 21.375 C-12.63020851 18.46274866 -10.69723106 15.55095831 -8.76292419 12.64004517 C-7.56638872 10.83911269 -6.37108797 9.03735915 -5.17713928 7.23471069 C-4.64245529 6.42941925 -4.1077713 5.62412781 -3.55688477 4.79443359 C-2.85028465 3.72834366 -2.85028465 3.72834366 -2.12940979 2.64071655 C-1 1 -1 1 0 0 Z " fill="#090909" transform="translate(142,103)"/>
<path d="M0 0 C2.67194166 2.37505925 4.04099112 4.81345582 5.625 8 C12.17319979 20.19319962 20.76758486 29.51581087 33.875 34.4375 C43.17114671 37.1905896 51.15134706 36.95329497 60.0390625 33.0703125 C62.15049916 32.03743321 62.15049916 32.03743321 64 30 C65.485 30.495 65.485 30.495 67 31 C61.48744001 38.97637297 54.87668094 45.98435083 45 48 C36.01916192 49.00309535 29.09818953 47.13848692 21.9140625 41.63671875 C15.57735449 36.2578398 10.65937961 30.51457886 7 23 C6.62488281 22.24976562 6.24976563 21.49953125 5.86328125 20.7265625 C2.77720044 14.18728346 0 7.28179473 0 0 Z " fill="#EFEFEF" transform="translate(145,49)"/>
<path d="M0 0 C0.33 0 0.66 0 1 0 C0.01541257 15.2611052 -7.762757 29.71415297 -19 40 C-27.26347305 46 -27.26347305 46 -32 46 C-32 46.66 -32 47.32 -32 48 C-42.26235922 48.72383411 -49.35432294 47.72030946 -57.359375 41.02734375 C-63.28333425 35.40798524 -63.28333425 35.40798524 -64 31 C-63.484375 31.268125 -62.96875 31.53625 -62.4375 31.8125 C-61.633125 32.204375 -60.82875 32.59625 -60 33 C-59.071875 33.53625 -58.14375 34.0725 -57.1875 34.625 C-49.21943358 37.94217787 -39.46795436 36.98808048 -31.625 33.875 C-16.02341864 26.38791404 -7.53454016 15.39825927 0 0 Z " fill="#F0F0F0" transform="translate(139,49)"/>
<path d="M0 0 C5.68421053 3.05263158 5.68421053 3.05263158 7 7 C7.03954234 9.33299825 7.04401732 11.66708189 7 14 C6.34 14 5.68 14 5 14 C4.71125 14.639375 4.4225 15.27875 4.125 15.9375 C3 18 3 18 1 19 C-3.99691647 19.37712577 -6.99067725 19.09290612 -11 16 C-13.50112323 12.24831516 -13.20919111 10.47995221 -12.59765625 6.1640625 C-12 4 -12 4 -9.875 1.4375 C-6.20774126 -0.39612937 -4.05973296 -0.56978708 0 0 Z " fill="#EFEFEF" transform="translate(219,48)"/>
<path d="M0 0 C2.78603893 2.12269633 3.7158234 3.50051498 4.3671875 6.9375 C4.61512462 10.78781768 4.2424165 12.62021414 2.125 15.9375 C-0.81241668 18.78852207 -1.61147334 18.96815355 -5.8125 19.3125 C-8.80157709 19.2417204 -10.19299589 18.91154355 -13 17.625 C-15.64134522 14.1582344 -15.72174329 11.69988012 -15.46875 7.41796875 C-15 5 -15 5 -13.125 1.875 C-8.7347092 -0.75917448 -4.99552883 -1.02774792 0 0 Z " fill="#F8F8F8" transform="translate(75,48)"/>
<path d="M0 0 C2.16015625 0.546875 2.16015625 0.546875 5.22265625 3.109375 C7.47904138 7.11263895 7.88672439 9.02600654 7.16015625 13.546875 C5.78515625 16.984375 5.78515625 16.984375 3.16015625 19.546875 C-0.34981185 20.42880628 -3.32419988 20.38744898 -6.83984375 19.546875 C-9.66833398 17.81591424 -10.18153626 16.64238231 -11.83984375 13.546875 C-12.5636453 10.45262337 -12.361877 8.83568446 -11.83984375 5.546875 C-8.71013625 0.70087629 -5.53012357 -0.33236135 0 0 Z " fill="#F3F3F3" transform="translate(144.83984375,22.453125)"/>
<path d="M0 0 C0.33 0.99 0.66 1.98 1 3 C14.86 3 28.72 3 43 3 C43 3.33 43 3.66 43 4 C38.24962333 5.22031898 33.62833736 5.12723661 28.76171875 5.09765625 C27.88095169 5.0962413 27.00018463 5.09482635 26.09272766 5.09336853 C23.29094997 5.08778937 20.48925338 5.07524071 17.6875 5.0625 C15.78320428 5.05748231 13.87890731 5.05291987 11.97460938 5.04882812 C7.31637519 5.03782677 2.65820133 5.02057649 -2 5 C-1.34 3.35 -0.68 1.7 0 0 Z " fill="#B4B4B4" transform="translate(55,212)"/>
<path d="M0 0 C0.33 0 0.66 0 1 0 C0.59378936 8.02616194 -0.59847776 15.32721195 -3 23 C-4 20 -4 20 -4 16 C-4.99 16.33 -5.98 16.66 -7 17 C-5.18834669 11.11212673 -2.75276224 5.50552448 0 0 Z " fill="#D2D2D2" transform="translate(216,78)"/>
<path d="M0 0 C6.75 3.375 6.75 3.375 9 5 C9 6.32 9 7.64 9 9 C8.34 9 7.68 9 7 9 C7 8.34 7 7.68 7 7 C6.34 7 5.68 7 5 7 C5.33 8.98 5.66 10.96 6 13 C5.34 12.67 4.68 12.34 4 12 C3.375 9.4375 3.375 9.4375 3 7 C2.67 8.98 2.34 10.96 2 13 C1.67 13 1.34 13 1 13 C0.67 8.71 0.34 4.42 0 0 Z " fill="#464646" transform="translate(67,74)"/>
<path d="M0 0 C0.66 0 1.32 0 2 0 C4.21538462 5.41538462 4.21538462 5.41538462 3.125 8.375 C2.75375 8.91125 2.3825 9.4475 2 10 C1.34 9.34 0.68 8.68 0 8 C-2.64 10.31 -5.28 12.62 -8 15 C-8.66 14.67 -9.32 14.34 -10 14 C-9.38125 13.7525 -8.7625 13.505 -8.125 13.25 C-5.5600844 11.74122612 -5.21925843 10.66712781 -4 8 C-3.29875 7.154375 -2.5975 6.30875 -1.875 5.4375 C0.30485538 3.11622611 0.30485538 3.11622611 0 0 Z " fill="#2D2D2D" transform="translate(211,77)"/>
<path d="M0 0 C0.33 0 0.66 0 1 0 C0.88490339 1.41750563 0.75746342 2.83401169 0.625 4.25 C0.55539063 5.03890625 0.48578125 5.8278125 0.4140625 6.640625 C-0.01507113 9.085877 -0.78600638 10.84836903 -2 13 C-3.32 13 -4.64 13 -6 13 C-4.31326082 8.50202887 -2.18326108 4.27113698 0 0 Z " fill="#B7B7B7" transform="translate(139,49)"/>
<path d="M0 0 C0.33 0.66 0.66 1.32 1 2 C0.32453125 1.94199219 -0.3509375 1.88398437 -1.046875 1.82421875 C-6.71752592 1.43184243 -6.71752592 1.43184243 -11.5625 4 C-13.38333001 7.79999306 -13.71551893 10.80390417 -14 15 C-14.33 15 -14.66 15 -15 15 C-15.43617985 10.00816393 -15.75736156 6.26226927 -13.125 1.875 C-8.73773073 -0.75736156 -4.99183607 -0.43617985 0 0 Z " fill="#ACACAC" transform="translate(75,48)"/>
<path d="M0 0 C2.98992243 2.56279065 4.60505456 5.32909094 6 9 C5.1875 11.875 5.1875 11.875 4 14 C1.01520806 9.52281208 0 5.36175907 0 0 Z " fill="#B5B5B5" transform="translate(145,49)"/>
<path d="M0 0 C0.99 0.33 1.98 0.66 3 1 C-1.18461538 5.92307692 -1.18461538 5.92307692 -5.3125 6.3125 C-6.199375 6.209375 -7.08625 6.10625 -8 6 C-6.66666667 5 -5.33333333 4 -4 3 C-3.319375 2.4225 -2.63875 1.845 -1.9375 1.25 C-1.298125 0.8375 -0.65875 0.425 0 0 Z " fill="#ACACAC" transform="translate(209,79)"/>
<path d="M0 0 C0.556875 0.28875 1.11375 0.5775 1.6875 0.875 C4.08494645 2.0413253 6.51596939 3.0339881 9 4 C8.01 4.495 8.01 4.495 7 5 C6.01 4.67 5.02 4.34 4 4 C3.67 4.66 3.34 5.32 3 6 C0 2.25 0 2.25 0 0 Z " fill="#BABABA" transform="translate(75,80)"/>
<path d="M0 0 C0.33 0 0.66 0 1 0 C0.67 3.96 0.34 7.92 0 12 C-2.18879485 7.62241031 -2.08927916 6.5551674 -1 2 C-0.67 1.34 -0.34 0.68 0 0 Z " fill="#C0C0C0" transform="translate(216,78)"/>
<path d="M0 0 C0.99 0 1.98 0 3 0 C3 2.97 3 5.94 3 9 C0.90250005 6.64031256 0.03094296 5.45383006 -0.1875 2.25 C-0.125625 1.5075 -0.06375 0.765 0 0 Z " fill="#404040" transform="translate(215,75)"/>
</svg>
